<svg width="34" height="31" viewBox="0 0 34 31" fill="none" xmlns="http://www.w3.org/2000/svg">
<path d="M15.8989 7.49588C16.922 3.83683 18.254 1.14635 23.5821 1.14635C23.5821 1.14635 24.9141 1.14635 27.5781 1.14635C30.2421 1.14635 34.2382 1.14633 32.9062 1.14633C31.5741 1.14633 27.5031 4.24514 26.6402 7.10845L22.463 22.003C21.6106 25.045 20.1613 27.3122 18.1154 28.8046C16.0694 30.2682 13.4125 31 10.1446 31C7.95655 31 6.09529 30.6843 4.56081 30.0529C3.05475 29.3929 1.9181 28.5176 1.15086 27.427C0.383619 26.3365 0 25.1455 0 23.8541C0 23.2227 0.0852488 22.6057 0.255746 22.003C0.625158 20.7116 1.25032 19.7358 2.13122 19.0757C3.04054 18.4157 4.04932 18.0856 5.15755 18.0856C6.43628 18.0856 7.41664 18.4731 8.09863 19.2479C8.78062 20.0228 9.12162 21.0129 9.12162 22.2182C9.12162 22.8209 9.03637 23.4236 8.86587 24.0262C8.52488 25.2316 7.88551 26.1212 6.94777 26.6952C7.40243 26.9822 7.92813 27.1257 8.52488 27.1257C9.12162 27.1257 9.64732 26.8244 10.102 26.2217C10.5566 25.619 10.9403 24.7724 11.2528 23.6819L15.8989 7.49588Z" fill="#9747FF"/>
<path d="M16.7281 6.66663C17.7512 3.00758 19.0832 0.317091 24.4113 0.317091C24.4113 0.317091 25.7433 0.317091 28.4073 0.317091C31.0714 0.317091 35.0674 0.317078 33.7354 0.317078C32.4034 0.317078 28.3323 3.41589 27.4695 6.2792L23.2923 21.1737C22.4398 24.2158 20.9906 26.483 18.9446 27.9753C16.8986 29.4389 14.2417 30.1707 10.9738 30.1707C8.78577 30.1707 6.92451 29.8551 5.39003 29.2237C3.88397 28.5636 2.74732 27.6883 1.98008 26.5978C1.21284 25.5072 0.829224 24.3162 0.829224 23.0248C0.829224 22.3934 0.914472 21.7764 1.08497 21.1737C1.45438 19.8823 2.07954 18.9066 2.96044 18.2465C3.86976 17.5864 4.87854 17.2564 5.98677 17.2564C7.26551 17.2564 8.24587 17.6438 8.92786 18.4187C9.60985 19.1935 9.95084 20.1836 9.95084 21.389C9.95084 21.9917 9.86559 22.5943 9.69509 23.197C9.3541 24.4023 8.71473 25.292 7.777 25.866C8.23166 26.1529 8.75736 26.2964 9.3541 26.2964C9.95084 26.2964 10.4765 25.9951 10.9312 25.3924C11.3859 24.7898 11.7695 23.9432 12.0821 22.8526L16.7281 6.66663Z" fill="#CCCCCC"/>
</svg>
