<?xml version="1.0" standalone="no"?>
<!DOCTYPE svg PUBLIC "-//W3C//DTD SVG 20010904//EN"
 "http://www.w3.org/TR/2001/REC-SVG-20010904/DTD/svg10.dtd">
<svg version="1.0" xmlns="http://www.w3.org/2000/svg"
 width="1088.000000pt" height="1088.000000pt" viewBox="0 0 1088.000000 1088.000000"
 preserveAspectRatio="xMidYMid meet">
<metadata>
Created by potrace 1.14, written by Peter Selinger 2001-2017
</metadata>
<g transform="translate(0.000000,1088.000000) scale(0.100000,-0.100000)"
fill="#000000" stroke="none">
<path d="M7921 10305 c-1 -6 -63 -10 -164 -11 -141 0 -207 -3 -402 -19 -22 -2
-40 -4 -40 -5 0 -1 -18 -4 -40 -5 -22 -2 -40 -4 -40 -5 0 -1 -11 -3 -25 -5
-57 -9 -88 -14 -140 -24 -30 -6 -71 -14 -90 -17 -19 -3 -39 -10 -45 -15 -5 -5
-18 -9 -28 -9 -38 0 -261 -81 -358 -130 -32 -16 -60 -26 -63 -23 -3 4 -6 1 -6
-5 0 -7 -4 -12 -9 -12 -12 0 -145 -82 -149 -92 -2 -5 -10 -8 -17 -8 -7 0 -15
-3 -17 -7 -1 -5 -23 -21 -48 -38 -53 -36 -540 -517 -540 -534 0 -7 -4 -9 -10
-6 -5 3 -10 -1 -10 -9 0 -9 -3 -16 -7 -16 -5 0 -24 -24 -43 -53 -19 -28 -41
-58 -47 -65 -7 -7 -25 -34 -40 -60 -15 -26 -31 -48 -35 -50 -4 -2 -8 -8 -8
-14 0 -5 -9 -23 -21 -39 -11 -16 -17 -29 -12 -29 4 0 0 -7 -10 -14 -10 -8 -17
-16 -16 -18 2 -1 -15 -41 -38 -88 -66 -138 -142 -317 -148 -350 -2 -8 -4 -15
-5 -15 -1 0 -3 -7 -6 -15 -2 -8 -24 -73 -48 -143 -24 -70 -45 -130 -45 -132
-1 -5 -2 -10 -5 -22 -2 -5 -8 -28 -16 -53 -7 -25 -14 -49 -16 -55 -1 -5 -7
-30 -15 -55 -7 -25 -14 -51 -15 -58 -1 -8 -6 -21 -10 -30 -4 -9 -8 -21 -9 -27
-3 -13 -52 -184 -71 -250 -8 -27 -16 -57 -19 -65 -8 -33 -67 -236 -73 -250 -3
-8 -6 -19 -7 -25 -2 -12 -23 -88 -36 -130 -14 -44 -53 -179 -54 -185 -7 -43
-50 -180 -57 -180 -5 0 -6 -5 -3 -10 3 -6 -5 -47 -19 -93 -36 -118 -98 -329
-101 -347 -2 -8 -4 -15 -5 -15 -1 0 -3 -11 -6 -24 -2 -14 -11 -43 -18 -65 -22
-65 -79 -270 -79 -283 0 -7 -4 -13 -9 -13 -6 0 -8 -6 -5 -12 2 -7 -4 -38 -15
-68 -10 -30 -21 -66 -24 -80 -6 -28 -8 -38 -16 -60 -8 -21 -33 -104 -34 -110
-2 -19 -17 -77 -23 -85 -3 -5 -6 -12 -6 -15 -4 -23 -21 -87 -41 -148 -13 -40
-25 -83 -27 -95 -2 -12 -7 -29 -10 -37 -8 -22 -27 -84 -32 -106 -2 -10 -16
-59 -30 -109 -14 -49 -28 -97 -30 -105 -2 -8 -15 -52 -29 -98 -13 -45 -24 -86
-25 -90 -1 -4 -7 -25 -13 -47 -6 -22 -13 -44 -14 -50 -2 -5 -33 -111 -69 -235
-36 -124 -68 -233 -70 -244 -2 -10 -12 -44 -21 -75 -9 -31 -17 -60 -18 -66 -2
-5 -11 -36 -20 -69 -10 -32 -19 -64 -21 -70 -1 -6 -5 -18 -8 -26 -14 -35 -35
-120 -30 -120 3 0 1 -6 -5 -12 -5 -7 -13 -29 -18 -48 -10 -44 -8 -38 -22 -85
-6 -22 -11 -42 -11 -45 1 -3 -6 -22 -14 -43 -9 -20 -14 -37 -11 -37 2 0 -2
-16 -10 -35 -8 -19 -13 -35 -11 -35 2 0 -4 -24 -14 -52 -17 -51 -21 -61 -26
-83 -1 -5 -10 -36 -19 -68 -10 -32 -19 -66 -21 -75 -2 -9 -11 -42 -20 -72 -9
-30 -18 -62 -20 -70 -2 -8 -13 -46 -25 -85 -12 -38 -23 -77 -25 -85 -2 -8 -10
-36 -18 -62 -8 -26 -12 -49 -9 -52 3 -4 -1 -6 -8 -6 -7 0 -11 -3 -7 -6 3 -3
-4 -31 -15 -62 -10 -32 -21 -65 -23 -76 -2 -10 -9 -24 -15 -30 -5 -7 -7 -16
-3 -19 3 -4 1 -7 -5 -7 -7 0 -11 -3 -10 -7 4 -10 -31 -102 -48 -128 -7 -11
-13 -23 -13 -28 -1 -13 -56 -122 -63 -125 -5 -2 -8 -10 -8 -17 0 -12 -26 -57
-57 -101 -5 -5 -13 -19 -19 -30 -12 -20 -78 -61 -116 -71 -109 -27 -243 -35
-319 -19 -157 32 -185 41 -279 84 -45 21 -51 31 -31 52 9 9 30 33 47 51 18 19
48 48 69 64 48 39 135 129 174 180 17 22 35 45 41 52 21 25 100 161 100 172 0
6 5 11 10 11 6 0 10 5 10 12 0 6 9 30 19 52 38 80 97 251 116 336 20 92 37
180 40 200 12 110 19 220 18 300 0 98 -11 259 -19 271 -2 4 -6 22 -9 40 -7 52
-15 86 -24 111 -5 13 -9 25 -9 28 0 39 -123 321 -143 328 -5 2 -9 8 -9 14 0
37 -264 318 -298 318 -5 0 -18 9 -30 20 -12 12 -22 18 -22 14 0 -4 -8 0 -18 9
-21 18 -115 62 -192 89 -59 20 -205 56 -230 56 -8 0 -26 3 -40 7 -49 13 -349
12 -437 -1 -164 -24 -216 -37 -338 -81 -80 -28 -208 -88 -245 -114 -14 -9 -29
-17 -35 -18 -10 -1 -118 -75 -178 -121 -18 -13 -76 -70 -129 -125 -117 -120
-111 -114 -223 -223 -50 -48 -105 -103 -122 -123 -54 -62 -149 -211 -197 -306
-44 -88 -114 -252 -120 -283 -2 -8 -6 -22 -9 -30 -9 -21 -47 -159 -53 -190 -2
-14 -7 -31 -9 -38 -3 -8 -8 -37 -11 -65 -4 -29 -8 -54 -10 -58 -24 -41 -24
-602 0 -626 3 -4 6 -17 6 -30 0 -48 72 -314 91 -339 5 -6 10 -19 12 -30 2 -10
12 -37 22 -59 10 -22 17 -43 17 -48 -1 -4 3 -7 10 -7 6 0 9 -3 5 -6 -3 -4 8
-32 25 -63 17 -31 43 -76 56 -101 14 -25 48 -78 76 -118 28 -41 56 -81 61 -90
6 -9 15 -21 21 -28 5 -6 26 -31 45 -54 62 -76 218 -229 305 -300 80 -64 258
-190 269 -190 5 0 86 -50 95 -60 3 -3 11 -6 18 -8 7 -1 31 -14 52 -27 22 -14
40 -22 40 -18 0 5 4 4 8 -2 9 -13 158 -85 242 -118 36 -13 74 -28 85 -32 11
-5 23 -9 28 -10 4 -2 9 -4 12 -5 3 -1 8 -3 13 -4 11 -3 85 -27 102 -33 21 -9
21 -9 55 -17 17 -4 37 -10 45 -13 8 -3 22 -7 30 -9 8 -1 42 -10 75 -18 83 -22
94 -25 139 -32 22 -3 44 -8 49 -11 4 -3 23 -7 40 -10 18 -2 42 -6 55 -9 47 -9
68 -12 112 -18 89 -12 125 -17 150 -22 14 -2 54 -6 90 -9 36 -3 81 -7 100 -10
189 -27 839 -27 1135 0 106 10 150 14 150 15 0 1 14 3 30 5 86 10 122 15 145
19 14 3 43 8 65 11 52 8 65 10 160 30 44 9 89 18 100 20 32 6 55 12 140 34 44
12 89 24 99 26 11 3 40 11 65 20 25 8 49 15 53 15 5 0 27 7 50 16 24 9 68 25
98 36 76 28 83 31 185 74 50 22 92 39 95 39 3 1 47 22 97 48 51 26 96 47 99
46 4 0 10 3 13 8 3 5 27 20 54 33 26 14 47 28 47 32 0 5 5 8 12 8 14 0 254
159 285 189 12 11 25 21 28 21 4 0 13 6 20 13 7 6 37 32 66 57 126 109 170
151 302 289 37 39 70 71 72 71 8 0 230 233 283 297 50 61 220 290 238 320 10
18 22 33 27 33 4 0 5 4 2 10 -3 5 -2 10 3 10 5 0 14 10 20 23 6 12 25 45 41
72 16 28 44 75 61 105 39 69 191 374 194 392 2 7 11 31 21 53 23 53 38 88 40
98 2 4 4 10 5 15 1 4 2 10 1 15 0 4 4 7 11 7 6 0 9 3 5 6 -3 4 1 20 9 36 9 17
17 37 19 46 2 10 13 44 25 77 21 59 78 236 85 265 2 8 23 80 45 160 55 193 82
288 94 338 3 9 14 49 26 87 11 39 22 78 25 88 2 10 7 28 11 40 5 12 8 27 9 32
0 6 6 28 13 50 20 68 63 219 67 239 3 10 12 44 21 75 10 31 18 61 19 67 2 5
22 77 45 159 23 82 44 156 45 164 2 9 4 16 5 16 1 0 3 7 5 15 2 8 11 42 20 75
9 33 18 67 20 75 2 8 4 16 5 18 2 1 4 7 5 12 1 6 3 11 5 13 1 1 3 9 5 17 1 8
8 35 16 60 7 25 13 50 15 55 1 6 16 60 33 120 18 61 34 117 36 125 3 14 91
327 136 485 11 39 22 81 25 94 3 14 7 28 10 33 3 4 7 17 10 28 2 11 6 28 9 38
2 9 9 33 14 52 5 19 19 67 30 105 12 39 23 79 26 90 5 26 11 47 18 65 11 31
31 115 29 123 -1 4 1 7 6 7 4 0 8 14 9 31 1 17 8 37 14 45 6 8 9 14 6 14 -4 0
0 18 8 40 8 22 14 41 14 43 0 1 2 9 4 17 3 8 16 58 31 110 14 52 34 122 43
155 10 33 18 65 19 70 1 6 3 12 4 15 5 13 12 47 13 63 1 9 5 17 9 17 4 0 8 7
8 16 0 9 10 49 21 88 12 39 22 76 24 81 1 6 7 28 13 50 6 22 12 43 12 47 1 4
6 22 11 40 14 44 87 301 104 363 7 28 18 65 23 83 6 17 8 32 5 32 -3 0 -1 6 5
13 5 6 13 28 18 47 16 71 33 130 49 171 8 20 11 39 8 43 -4 3 -2 6 4 6 9 0 24
46 22 66 0 4 4 10 11 14 6 4 12 13 14 21 2 15 67 150 76 159 3 3 12 19 20 35
8 17 17 32 20 35 3 3 23 34 45 70 21 36 43 70 47 75 5 6 45 60 90 120 45 61
87 115 92 121 6 7 34 38 61 69 59 68 167 172 236 227 19 14 44 35 55 45 12 10
36 29 54 43 86 65 106 80 116 89 6 5 58 40 115 77 57 38 106 72 107 77 2 4 8
7 13 7 5 0 27 11 48 24 21 14 42 22 45 19 3 -4 6 -2 6 4 0 11 186 102 245 119
78 23 115 31 122 25 4 -3 5 -2 0 3 -4 5 -70 9 -147 9 -135 -1 -139 0 -117 17
49 38 325 189 357 195 3 1 32 10 65 20 33 10 63 18 68 17 4 -1 7 5 7 14 0 8
-5 12 -10 9 -18 -11 -130 -11 -130 0 0 7 -3 7 -8 0 -8 -12 -82 -14 -82 -2 0 5
-5 5 -12 1 -18 -11 -138 -10 -138 1 0 7 -3 7 -8 0 -8 -12 -82 -14 -82 -2 0 5
-5 5 -12 1 -18 -11 -138 -10 -138 1 0 7 -3 7 -8 0 -8 -12 -82 -14 -82 -2 0 5
-5 5 -12 1 -18 -11 -138 -10 -138 1 0 7 -3 7 -8 0 -8 -12 -82 -14 -82 -2 0 5
-5 5 -12 1 -18 -11 -137 -10 -142 1 -2 6 -8 6 -16 -1 -7 -7 -24 -9 -46 -4 -19
4 -36 4 -39 0 -3 -4 -21 -4 -40 0 -19 4 -37 4 -40 0 -3 -4 -21 -4 -40 0 -19 4
-37 4 -40 0 -3 -4 -21 -4 -40 0 -19 4 -37 4 -40 0 -3 -4 -21 -4 -40 0 -19 4
-37 4 -40 0 -3 -4 -21 -4 -40 0 -19 4 -37 4 -40 0 -3 -4 -20 -4 -39 0 -19 4
-37 6 -40 3 -9 -10 -136 -8 -136 2 0 7 -3 7 -8 0 -8 -12 -82 -14 -82 -2 0 5
-5 5 -12 1 -18 -11 -138 -10 -138 1 0 7 -3 7 -8 0 -8 -12 -82 -14 -82 -2 0 5
-5 5 -12 1 -18 -11 -138 -10 -138 1 0 7 -3 7 -8 0 -8 -12 -82 -14 -82 -2 0 5
-5 5 -12 1 -18 -11 -138 -10 -138 1 0 7 -3 7 -8 0 -8 -12 -82 -14 -82 -2 0 5
-5 5 -12 1 -18 -11 -137 -10 -142 1 -3 7 -5 7 -5 0z"/>
</g>
</svg>
